{
  "accessors": [
    {
      "bufferView": 2,
      "componentType": 5126,
      "count": 8215,
      "max": [
        -18.62560272216797,
        96.43939971923828,
        54.719139099121094
      ],
      "min": [
        -48.67822265625,
        68.9640121459961,
        16.28342056274414
      ],
      "type": "VEC3"
    },
    {
      "bufferView": 2,
      "byteOffset": 98580,
      "componentType": 5126,
      "count": 8215,
      "max": [
        0.9999858140945435,
        0.9999971389770508,
        0.9996481537818909
      ],
      "min": [
        -0.9999962449073792,
        -0.9994751214981079,
        -0.9999417066574097
      ],
      "type": "VEC3"
    },
    {
      "bufferView": 1,
      "componentType": 5126,
      "count": 8215,
      "max": [
        0.9961141347885132,
        0.9935316443443298
      ],
      "min": [
        0.05352935194969177,
        0.005639843642711639
      ],
      "type": "VEC2"
    },
    {
      "bufferView": 0,
      "componentType": 5125,
      "count": 43119,
      "type": "SCALAR"
    },
    {
      "bufferView": 2,
      "byteOffset": 197160,
      "componentType": 5126,
      "count": 1643,
      "max": [
        -15.770660400390625,
        89.57744598388672,
        37.27406692504883
      ],
      "min": [
        -27.81464958190918,
        85.13442993164063,
        28.7613582611084
      ],
      "type": "VEC3"
    },
    {
      "bufferView": 2,
      "byteOffset": 216876,
      "componentType": 5126,
      "count": 1643,
      "max": [
        0.9998510479927063,
        0.9991166591644287,
        0.9994766116142273
      ],
      "min": [
        -0.9975013732910156,
        -0.9997473359107971,
        -0.9994439482688904
      ],
      "type": "VEC3"
    },
    {
      "bufferView": 1,
      "byteOffset": 65720,
      "componentType": 5126,
      "count": 1643,
      "max": [
        0.46314752101898193,
        0.4242660105228424
      ],
      "min": [
        0.17593464255332947,
        0.16666962206363678
      ],
      "type": "VEC2"
    },
    {
      "bufferView": 0,
      "byteOffset": 172476,
      "componentType": 5125,
      "count": 8592,
      "type": "SCALAR"
    },
    {
      "bufferView": 2,
      "byteOffset": 236592,
      "componentType": 5126,
      "count": 1643,
      "max": [
        -39.925899505615234,
        89.15241241455078,
        36.8343505859375
      ],
      "min": [
        -51.9025764465332,
        85.55946350097656,
        29.442598342895508
      ],
      "type": "VEC3"
    },
    {
      "bufferView": 2,
      "byteOffset": 256308,
      "componentType": 5126,
      "count": 1643,
      "max": [
        0.9979639053344727,
        0.9991168975830078,
        0.9992460012435913
      ],
      "min": [
        -0.9985308647155762,
        -0.9997475743293762,
        -0.999776303768158
      ],
      "type": "VEC3"
    },
    {
      "bufferView": 1,
      "byteOffset": 78864,
      "componentType": 5126,
      "count": 1643,
      "max": [
        0.5582789778709412,
        0.4379065930843353
      ],
      "min": [
        0.2811099886894226,
        0.013005934655666351
      ],
      "type": "VEC2"
    },
    {
      "bufferView": 0,
      "byteOffset": 206844,
      "componentType": 5125,
      "count": 8592,
      "type": "SCALAR"
    },
    {
      "bufferView": 2,
      "byteOffset": 276024,
      "componentType": 5126,
      "count": 5359,
      "max": [
        -15.676639556884766,
        105.4919204711914,
        26.633140563964844
      ],
      "min": [
        -51.63845443725586,
        74.08363342285156,
        13.501997947692871
      ],
      "type": "VEC3"
    },
    {
      "bufferView": 2,
      "byteOffset": 340332,
      "componentType": 5126,
      "count": 5359,
      "max": [
        0.9998906254768372,
        0.9997140765190125,
        0.9992210865020752
      ],
      "min": [
        -0.9998906254768372,
        -0.9995729327201843,
        -0.9998198747634888
      ],
      "type": "VEC3"
    },
    {
      "bufferView": 1,
      "byteOffset": 92008,
      "componentType": 5126,
      "count": 5359,
      "max": [
        0.7883273363113403,
        0.9311553835868835
      ],
      "min": [
        0.008337430655956268,
        0.00463541503995657
      ],
      "type": "VEC2"
    },
    {
      "bufferView": 0,
      "byteOffset": 241212,
      "componentType": 5125,
      "count": 29211,
      "type": "SCALAR"
    },
    {
      "bufferView": 2,
      "byteOffset": 404640,
      "componentType": 5126,
      "count": 865,
      "max": [
        -32.10519790649414,
        76.99832153320313,
        14.555931091308594
      ],
      "min": [
        -34.94657516479492,
        76.56730651855469,
        13.7264404296875
      ],
      "type": "VEC3"
    },
    {
      "bufferView": 2,
      "byteOffset": 415020,
      "componentType": 5126,
      "count": 865,
      "max": [
        0.9999676942825317,
        0.9998975396156311,
        0.982138991355896
      ],
      "min": [
        -0.999982476234436,
        -0.6318842768669128,
        -0.9999030828475952
      ],
      "type": "VEC3"
    },
    {
      "bufferView": 1,
      "byteOffset": 134880,
      "componentType": 5126,
      "count": 865,
      "max": [
        0.08853724598884583,
        0.9546509385108948
      ],
      "min": [
        0.04987380653619766,
        0.8433115482330322
      ],
      "type": "VEC2"
    },
    {
      "bufferView": 0,
      "byteOffset": 358056,
      "componentType": 5125,
      "count": 4446,
      "type": "SCALAR"
    },
    {
      "bufferView": 2,
      "byteOffset": 425400,
      "componentType": 5126,
      "count": 768,
      "max": [
        -25.681171417236328,
        96.05634307861328,
        22.849428176879883
      ],
      "min": [
        -41.6339225769043,
        81.79976654052734,
        16.772071838378906
      ],
      "type": "VEC3"
    },
    {
      "bufferView": 2,
      "byteOffset": 434616,
      "componentType": 5126,
      "count": 768,
      "max": [
        0.9988085627555847,
        0.9925711154937744,
        0.3932759165763855
      ],
      "min": [
        -0.9988082647323608,
        -0.9990509152412415,
        -0.9986265301704407
      ],
      "type": "VEC3"
    },
    {
      "bufferView": 1,
      "byteOffset": 141800,
      "componentType": 5126,
      "count": 768,
      "max": [
        0.19672563672065735,
        0.22439628839492798
      ],
      "min": [
        0.008852481842041016,
        0.006647251546382904
      ],
      "type": "VEC2"
    },
    {
      "bufferView": 0,
      "byteOffset": 375840,
      "componentType": 5125,
      "count": 4266,
      "type": "SCALAR"
    }
  ],
  "asset": {
    "extras": {
      "author": "manishreddy (https://sketchfab.com/manishreddy)",
      "license": "CC-BY-4.0 (http://creativecommons.org/licenses/by/4.0/)",
      "source": "https://sketchfab.com/3d-models/steering-model-uv-5c3fe6b5c03144ae99ec1ebd04bc453b",
      "title": "Steering Model & UV"
    },
    "generator": "Sketchfab-16.56.0",
    "version": "2.0"
  },
  "bufferViews": [
    {
      "buffer": 0,
      "byteLength": 392904,
      "name": "floatBufferViews",
      "target": 34963
    },
    {
      "buffer": 0,
      "byteLength": 147944,
      "byteOffset": 392904,
      "byteStride": 8,
      "name": "floatBufferViews",
      "target": 34962
    },
    {
      "buffer": 0,
      "byteLength": 443832,
      "byteOffset": 540848,
      "byteStride": 12,
      "name": "floatBufferViews",
      "target": 34962
    }
  ],
  "buffers": [
    {
      "byteLength": 984680,
      "uri": "scene.bin"
    }
  ],
  "extensionsUsed": [
    "KHR_materials_specular"
  ],
  "materials": [
    {
      "doubleSided": true,
      "extensions": {
        "KHR_materials_specular": {
          "specularColorFactor": [
            1.0,
            1.0,
            1.0
          ],
          "specularFactor": 0.24228645268252244
        }
      },
      "name": "GOOD_LUCK",
      "pbrMetallicRoughness": {
        "baseColorFactor": [
          0.2099684709666353,
          0.2099684709666353,
          0.2099684709666353,
          1.0
        ],
        "metallicFactor": 0.20571491265497188,
        "roughnessFactor": 0.38857261279272465
      }
    },
    {
      "doubleSided": true,
      "name": "lambert1",
      "pbrMetallicRoughness": {
        "baseColorFactor": [
          0.5,
          0.5,
          0.5,
          1.0
        ],
        "metallicFactor": 0.0,
        "roughnessFactor": 0.6
      }
    }
  ],
  "meshes": [
    {
      "name": "Steering_Console_Geo_GOOD_LUCK_0",
      "primitives": [
        {
          "attributes": {
            "NORMAL": 1,
            "POSITION": 0,
            "TEXCOORD_0": 2
          },
          "indices": 3,
          "material": 0,
          "mode": 4
        }
      ]
    },
    {
      "name": "LT_Lever_Geo_GOOD_LUCK_0",
      "primitives": [
        {
          "attributes": {
            "NORMAL": 5,
            "POSITION": 4,
            "TEXCOORD_0": 6
          },
          "indices": 7,
          "material": 0,
          "mode": 4
        }
      ]
    },
    {
      "name": "RT_Lever_Geo_GOOD_LUCK_0",
      "primitives": [
        {
          "attributes": {
            "NORMAL": 9,
            "POSITION": 8,
            "TEXCOORD_0": 10
          },
          "indices": 11,
          "material": 0,
          "mode": 4
        }
      ]
    },
    {
      "name": "Steering_Wheel_Geo_GOOD_LUCK_0",
      "primitives": [
        {
          "attributes": {
            "NORMAL": 13,
            "POSITION": 12,
            "TEXCOORD_0": 14
          },
          "indices": 15,
          "material": 0,
          "mode": 4
        }
      ]
    },
    {
      "name": "Steering_Wheel_Geo_lambert1_0",
      "primitives": [
        {
          "attributes": {
            "NORMAL": 17,
            "POSITION": 16,
            "TEXCOORD_0": 18
          },
          "indices": 19,
          "material": 1,
          "mode": 4
        }
      ]
    },
    {
      "name": "Horn_Geo_GOOD_LUCK_0",
      "primitives": [
        {
          "attributes": {
            "NORMAL": 21,
            "POSITION": 20,
            "TEXCOORD_0": 22
          },
          "indices": 23,
          "material": 0,
          "mode": 4
        }
      ]
    }
  ],
  "nodes": [
    {
      "children": [
        1
      ],
      "matrix": [
        1.0,
        0.0,
        0.0,
        0.0,
        0.0,
        2.220446049250313e-16,
        -1.0,
        0.0,
        0.0,
        1.0,
        2.220446049250313e-16,
        0.0,
        0.0,
        0.0,
        0.0,
        1.0
      ],
      "name": "Sketchfab_model"
    },
    {
      "children": [
        2
      ],
      "matrix": [
        0.009999999776482582,
        0.0,
        0.0,
        0.0,
        0.0,
        0.0,
        0.009999999776482582,
        0.0,
        0.0,
        -0.009999999776482582,
        0.0,
        0.0,
        0.0,
        0.0,
        0.0,
        1.0
      ],
      "name": "1ccab80d2b5a4b44bc256b011831d4fe.fbx"
    },
    {
      "children": [
        3
      ],
      "name": "RootNode"
    },
    {
      "children": [
        4,
        6,
        8,
        10,
        13
      ],
      "name": "Steering_Geo_Group"
    },
    {
      "children": [
        5
      ],
      "matrix": [
        1.0,
        0.0,
        0.0,
        0.0,
        0.0,
        1.0,
        0.0,
        0.0,
        0.0,
        0.0,
        1.0,
        0.0,
        0.0,
        0.19736577570438385,
        0.044329043477773666,
        1.0
      ],
      "name": "Steering_Console_Geo"
    },
    {
      "mesh": 0,
      "name": "Steering_Console_Geo_GOOD_LUCK_0"
    },
    {
      "children": [
        7
      ],
      "name": "LT_Lever_Geo"
    },
    {
      "mesh": 1,
      "name": "LT_Lever_Geo_GOOD_LUCK_0"
    },
    {
      "children": [
        9
      ],
      "name": "RT_Lever_Geo"
    },
    {
      "mesh": 2,
      "name": "RT_Lever_Geo_GOOD_LUCK_0"
    },
    {
      "children": [
        11,
        12
      ],
      "name": "Steering_Wheel_Geo"
    },
    {
      "mesh": 3,
      "name": "Steering_Wheel_Geo_GOOD_LUCK_0"
    },
    {
      "mesh": 4,
      "name": "Steering_Wheel_Geo_lambert1_0"
    },
    {
      "children": [
        14
      ],
      "name": "Horn_Geo"
    },
    {
      "mesh": 5,
      "name": "Horn_Geo_GOOD_LUCK_0"
    }
  ],
  "scene": 0,
  "scenes": [
    {
      "name": "Sketchfab_Scene",
      "nodes": [
        0
      ]
    }
  ]
}
